<svg width="717" height="738" viewBox="0 0 717 738" fill="none" xmlns="http://www.w3.org/2000/svg">
<path fill-rule="evenodd" clip-rule="evenodd" d="M517.777 210.668C561.361 211.89 608.653 196.269 645.022 220.155C681.816 244.321 693.76 291.315 705.051 333.666C715.774 373.886 723.475 416.842 707.74 455.402C692.532 492.669 656.123 514.903 622.161 536.794C589.982 557.535 555.439 570.599 517.777 577.844C471.252 586.794 422.103 603.529 379.204 583.53C333.183 562.075 297.703 518.118 284.864 469.262C272.343 421.615 294.01 373.584 311.972 327.686C328.912 284.4 344.624 235.945 385.204 212.871C424.522 190.515 472.489 209.398 517.777 210.668Z" fill="#BE0000"/>
<path fill-rule="evenodd" clip-rule="evenodd" d="M325.154 3.93351C364.498 9.19828 400.523 26.8839 430.363 52.8894C458.133 77.0904 469.093 112.296 486.582 144.617C508.961 185.974 551.088 221.505 546.91 268.272C542.515 317.48 507.642 362.486 464.868 387.701C423.68 411.981 372.911 402.639 325.154 398.998C281.236 395.649 238.165 389.707 200.202 367.521C159.059 343.476 117.632 313.525 102.157 268.673C86.5829 223.531 101.095 174.516 118.234 129.936C134.633 87.2784 157.918 45.544 197.113 21.677C234.773 -1.25569 281.375 -1.92482 325.154 3.93351Z" fill="#FF0000"/>
<path fill-rule="evenodd" clip-rule="evenodd" d="M510.838 365.09C516.939 414.535 459.336 446.983 441.204 493.428C427.211 529.271 440.171 572.154 417.763 603.5C392.19 639.273 354.27 667.491 310.882 675.732C265.304 684.389 217.591 672.719 177.752 649.086C138.035 625.526 110.577 587.338 91.3911 545.53C71.8927 503.04 47.5852 452.663 68.4007 410.794C89.2007 368.956 156.064 379.356 190.031 347.121C226.609 312.409 220.805 241.094 267.527 221.823C314.323 202.522 368.275 229.96 411.861 255.625C455.402 281.262 504.681 315.191 510.838 365.09Z" fill="#DC0000"/>
</svg>
