<svg width="78" height="78" viewBox="0 0 78 78" fill="none" xmlns="http://www.w3.org/2000/svg">
<path fill-rule="evenodd" clip-rule="evenodd" d="M55.9909 22.203C60.704 22.3323 65.8181 20.6795 69.7509 23.2069C73.7296 25.7639 75.0212 30.7363 76.2422 35.2174C77.4018 39.4732 78.2345 44.0183 76.533 48.0984C74.8885 52.0416 70.9513 54.3942 67.2787 56.7104C63.799 58.9051 60.0636 60.2874 55.9909 61.054C50.9598 62.001 45.6451 63.7717 41.0061 61.6556C36.0295 59.3854 32.1927 54.7344 30.8044 49.5649C29.4504 44.5234 31.7934 39.4412 33.7358 34.5847C35.5677 30.0046 37.2666 24.8776 41.6548 22.4362C45.9066 20.0707 51.0936 22.0687 55.9909 22.203Z" fill="#BE0000"/>
<path fill-rule="evenodd" clip-rule="evenodd" d="M35.1612 0.328374C39.4157 0.88544 43.3114 2.75675 46.5382 5.5084C49.5411 8.06911 50.7263 11.7942 52.6176 15.2141C55.0376 19.5901 59.593 23.3496 59.1413 28.2981C58.666 33.5048 54.8949 38.2668 50.2695 40.9348C45.8155 43.504 40.3255 42.5154 35.1612 42.1301C30.412 41.7758 25.7544 41.1471 21.6492 38.7995C17.2002 36.2554 12.7203 33.0863 11.047 28.3405C9.36278 23.564 10.9321 18.3777 12.7854 13.6607C14.5588 9.1471 17.0768 4.73118 21.3152 2.20582C25.3876 -0.220696 30.427 -0.291496 35.1612 0.328374Z" fill="#FF0000"/>
<path fill-rule="evenodd" clip-rule="evenodd" d="M55.2406 38.5424C55.9004 43.7741 49.6714 47.2074 47.7106 52.1218C46.1974 55.9144 47.5989 60.4518 45.1758 63.7685C42.4104 67.5537 38.3098 70.5394 33.618 71.4114C28.6892 72.3274 23.5297 71.0926 19.2216 68.592C14.9268 66.0992 11.9575 62.0585 9.8828 57.6347C7.77429 53.1389 5.14576 47.8085 7.39668 43.3783C9.64594 38.9515 16.8764 40.0519 20.5495 36.6411C24.5049 32.9682 23.8772 25.4224 28.9296 23.3833C33.99 21.341 39.8242 24.2443 44.5376 26.9599C49.2459 29.6726 54.5748 33.2626 55.2406 38.5424Z" fill="#DC0000"/>
</svg>
